<?xml version="1.0" encoding="utf-8"?>
<!-- Generator: Adobe Illustrator 16.0.4, SVG Export Plug-In . SVG Version: 6.00 Build 0)  -->
<!DOCTYPE svg PUBLIC "-//W3C//DTD SVG 1.1//EN" "http://www.w3.org/Graphics/SVG/1.1/DTD/svg11.dtd">
<svg version="1.1" id="Layer_1" xmlns="http://www.w3.org/2000/svg" xmlns:xlink="http://www.w3.org/1999/xlink" x="0px" y="0px"
	 width="1280px" height="800px" viewBox="0 0 1280 800" enable-background="new 0 0 1280 800" xml:space="preserve">
<polyline fill="none" stroke="#F77A52" stroke-width="6" stroke-miterlimit="10" points="199.75,0 199.75,66.25 134.75,66.25 
	134.75,108.75 67.75,108.75 67.75,171.75 0,171.75 "/>
<polyline fill="none" stroke="#332532" stroke-width="6" stroke-miterlimit="10" points="0,138.25 24.929,138.25 25.875,185.214 
	56.75,185.25 56.75,216 24.215,215.929 23.836,298.497 112.5,298.5 "/>
<polyline fill="none" stroke="#F77A52" stroke-width="6" stroke-miterlimit="10" points="66.5,298.499 66.5,342.5 30.5,342.5 
	30.5,407.5 0,407.5 "/>
<polyline fill="none" stroke="#F77A52" stroke-width="6" stroke-miterlimit="10" points="1280,558 1221.5,558 1221.5,608 
	1250.75,608 1250.75,739 1154.5,739 1154.5,768 1182.5,768 1182.5,800 "/>
<polyline fill="none" stroke="#332532" stroke-width="6" stroke-miterlimit="10" points="1280,382.5 1204.5,382.5 1204.5,336.5 
	1247.5,336.5 1247.5,473.5 1180.5,473.5 1180.5,580.5 1280,580.5 "/>
<polyline fill="none" stroke="#332532" stroke-width="6" stroke-miterlimit="10" points="509.5,0 509.5,85.875 640,85.875 
	640,109.5 875.5,109.5 875.5,27.5 1078.5,27.5 1078.5,-3.5 "/>
<polyline fill="none" stroke="#F77A52" stroke-width="6" stroke-miterlimit="10" points="1020.5,0 1020.5,149.5 1135.5,149.5 
	1135.5,231.5 1269.5,231.5 1269.5,193.5 1280,193.5 "/>
</svg>
