<?xml version="1.0" encoding="utf-8"?>
<!-- Generator: Adobe Illustrator 16.0.4, SVG Export Plug-In . SVG Version: 6.00 Build 0)  -->
<!DOCTYPE svg PUBLIC "-//W3C//DTD SVG 1.1//EN" "http://www.w3.org/Graphics/SVG/1.1/DTD/svg11.dtd">
<svg version="1.1" id="Layer_1" xmlns="http://www.w3.org/2000/svg" xmlns:xlink="http://www.w3.org/1999/xlink" x="0px" y="0px"
	 width="231.5px" height="42px" viewBox="476.5 274.5 231.5 42" enable-background="new 476.5 274.5 231.5 42" xml:space="preserve"
	>
<path fill="#383E47" d="M539.876,280.897c-0.289-0.288-0.68-0.45-1.086-0.45h-46.081c-0.407,0-0.798,0.162-1.086,0.45l-3.072,3.072
	c-0.288,0.288-0.45,0.679-0.45,1.086v18.432c0,0.849,0.688,1.536,1.536,1.536h3.149c0.357,1.75,1.908,3.072,3.763,3.072
	c1.257,0,2.371-0.609,3.072-1.545c0.701,0.936,1.815,1.545,3.072,1.545c1.854,0,3.405-1.321,3.762-3.072h18.588
	c0.355,1.75,1.908,3.072,3.762,3.072c1.258,0,2.371-0.609,3.072-1.545c0.701,0.936,1.814,1.545,3.072,1.545
	c1.854,0,3.404-1.321,3.762-3.072h3.15c0.848,0,1.535-0.688,1.535-1.536v-18.432c0-0.407-0.162-0.798-0.449-1.086L539.876,280.897z
	 M497.318,301.952h-1.536v-12.288h1.536V301.952z M535.718,301.952h-1.537v-12.288h1.537V301.952z M540.325,301.952h-1.535v-13.824
	c0-0.849-0.688-1.536-1.537-1.536h-4.607c-0.848,0-1.535,0.688-1.535,1.536v13.824H500.39v-13.824c0-0.849-0.688-1.536-1.536-1.536
	h-4.608c-0.849,0-1.536,0.688-1.536,1.536v13.824h-1.536v-16.259l2.172-2.172h44.808l2.172,2.172V301.952z"/>
<path fill="#383E47" d="M528.038,286.592h-24.577c-0.848,0-1.536,0.688-1.536,1.536v6.144c0,0.848,0.688,1.536,1.536,1.536h24.577
	c0.848,0,1.535-0.688,1.535-1.536v-6.144C529.573,287.279,528.886,286.592,528.038,286.592z M508.07,292.736h-3.072v-3.072h3.072
	V292.736z M514.214,292.736h-3.071v-3.072h3.071V292.736z M520.358,292.736h-3.072v-3.072h3.072V292.736z M526.501,292.736h-3.072
	v-3.072h3.072V292.736z"/>
<path fill="#383E47" d="M615.09,281.125c-0.289-0.288-0.68-0.45-1.086-0.45h-46.08c-0.408,0-0.799,0.162-1.086,0.45l-3.072,3.072
	c-0.288,0.288-0.45,0.679-0.45,1.086v18.432c0,0.849,0.688,1.536,1.536,1.536h3.149c0.356,1.75,1.908,3.072,3.763,3.072
	c1.257,0,2.371-0.609,3.072-1.545c0.701,0.936,1.814,1.545,3.072,1.545c1.854,0,3.404-1.321,3.762-3.072h18.588
	c0.355,1.75,1.908,3.072,3.762,3.072c1.258,0,2.371-0.609,3.072-1.545c0.701,0.936,1.814,1.545,3.072,1.545
	c1.854,0,3.404-1.321,3.762-3.072h3.15c0.848,0,1.535-0.688,1.535-1.536v-18.432c0-0.407-0.162-0.798-0.449-1.086L615.09,281.125z
	 M572.531,302.18h-1.535v-12.288h1.535V302.18z M610.932,302.18h-1.537v-12.288h1.537V302.18z M615.539,302.18h-1.535v-13.824
	c0-0.849-0.688-1.536-1.537-1.536h-4.607c-0.848,0-1.535,0.688-1.535,1.536v13.824h-30.721v-13.824c0-0.849-0.688-1.536-1.536-1.536
	h-4.608c-0.848,0-1.535,0.688-1.535,1.536v13.824h-1.536V285.92l2.172-2.172h44.808l2.172,2.172V302.18z"/>
<path fill="#383E47" d="M603.252,286.82h-24.576c-0.849,0-1.536,0.688-1.536,1.536v6.144c0,0.848,0.688,1.536,1.536,1.536h24.576
	c0.848,0,1.535-0.688,1.535-1.536v-6.144C604.787,287.507,604.1,286.82,603.252,286.82z M583.283,292.964h-3.072v-3.072h3.072
	V292.964z M589.428,292.964h-3.071v-3.072h3.071V292.964z M595.572,292.964H592.5v-3.072h3.072V292.964z M601.715,292.964h-3.072
	v-3.072h3.072V292.964z"/>
<path fill="#383E47" d="M692.09,281.662c-0.289-0.288-0.68-0.45-1.086-0.45h-46.08c-0.408,0-0.799,0.162-1.086,0.45l-3.072,3.072
	c-0.288,0.288-0.45,0.679-0.45,1.086v18.432c0,0.849,0.688,1.536,1.536,1.536h3.149c0.356,1.75,1.908,3.072,3.763,3.072
	c1.257,0,2.371-0.609,3.072-1.545c0.701,0.936,1.814,1.545,3.072,1.545c1.854,0,3.404-1.321,3.762-3.072h18.588
	c0.355,1.75,1.908,3.072,3.762,3.072c1.258,0,2.371-0.609,3.072-1.545c0.701,0.936,1.814,1.545,3.072,1.545
	c1.854,0,3.404-1.321,3.762-3.072h3.15c0.848,0,1.535-0.688,1.535-1.536V285.82c0-0.407-0.162-0.798-0.449-1.086L692.09,281.662z
	 M649.531,302.716h-1.535v-12.288h1.535V302.716z M687.932,302.716h-1.537v-12.288h1.537V302.716z M692.539,302.716h-1.535v-13.824
	c0-0.849-0.688-1.536-1.537-1.536h-4.607c-0.848,0-1.535,0.688-1.535,1.536v13.824h-30.721v-13.824c0-0.849-0.688-1.536-1.536-1.536
	h-4.608c-0.848,0-1.535,0.688-1.535,1.536v13.824h-1.536v-16.259l2.172-2.172h44.808l2.172,2.172V302.716z"/>
<path fill="#383E47" d="M680.252,287.356h-24.576c-0.849,0-1.536,0.688-1.536,1.536v6.144c0,0.848,0.688,1.536,1.536,1.536h24.576
	c0.848,0,1.535-0.688,1.535-1.536v-6.144C681.787,288.043,681.1,287.356,680.252,287.356z M660.283,293.5h-3.072v-3.072h3.072V293.5
	z M666.428,293.5h-3.071v-3.072h3.071V293.5z M672.572,293.5H669.5v-3.072h3.072V293.5z M678.715,293.5h-3.072v-3.072h3.072V293.5z"
	/>
</svg>
